<svg xmlns="http://www.w3.org/2000/svg" width="500" height="500" style="width:100%;height:100%;transform:translate3d(0,0,0);content-visibility:visible"><defs><clipPath id="a"><path d="M0 0h500v500H0z"/></clipPath></defs><g clip-path="url(#a)"><g fill="#FDC501" style="display:block"><path d="M304.04 334.649c-7.147 7.226-63.522 5.742-99.587-29.931-36.066-35.674-38.166-92.03-31.018-99.255 7.147-7.227 42.179 15.835 78.244 51.509 36.066 35.673 59.51 70.45 52.362 77.677z"/><path d="M65.985 63.913C58.798 71.1 2.432 69.308-33.438 33.438-69.308-2.432-71.1-58.798-63.913-65.985c7.187-7.187 42.092 16.066 77.962 51.936 35.87 35.87 59.123 70.775 51.936 77.962z" style="mix-blend-mode:multiply" transform="rotate(-.313 49743.928 -43377.72)"/></g><path fill="none" stroke="#F14B00" stroke-linecap="round" stroke-linejoin="round" stroke-width="7" d="M76.803 123.887a175.453 175.453 0 0 0 7.597-12.081c27.335-47.563-4.028-175.59-95.773-150.299-.424.117-.847.231-1.269.344" style="display:block" transform="translate(129.365 159.041)"/><path fill="none" stroke="#F14B00" stroke-linecap="round" stroke-linejoin="round" stroke-width="7" d="M-70.965-50.201a290.407 290.407 0 0 1 10.512-8.113C-29.292-81.147 49.852-80.24 59.22-17.285" style="display:block" transform="translate(306.582 355.237)"/><g style="display:block"><path fill="#FDC501" d="M225.799 283.143c31.98 31.631 63.154 53.353 74.777 52.823l-46.495 17.84-12.039 4.62-29.015 11.133-33.278 12.768h-.014l-6.33 2.431-2.617.998-15.426 5.925-2.406.925-32.657 12.525-9.97 3.823c-4.75 1.83-9.443-1.786-9.525-6.354a7.1 7.1 0 0 1 .452-2.62l9.074-24.43-.008-.007 6.948-18.712.662-1.779 5.854-15.787.801-2.147.175-.475 2.201-5.937v-.015l12.565-33.833-.007-.007 10.816-29.135 4.487-12.074-.007-.008 17.338-46.693.007-.021c.013-.185.019-.362.039-.539.013-.155.041-.31.061-.459 0-.014.007-.035.007-.049 0-.014 0-.03.007-.036.027-.156.062-.304.103-.446.035-.149.084-.284.126-.425.007-.021.007-.035.02-.05.049-.134.105-.262.169-.382-.19.404-.336.85-.418 1.346a7.792 7.792 0 0 0-.107 1.047l-.014.043c-.15 4.886 3.643 13.167 10.466 23.475 9.426 14.246 24.63 32.35 43.178 50.698z"/><path fill="#FDC501" d="m-21.892 95.818-9.991 3.769c-4.759 1.803-9.433-1.838-9.49-6.406a7.197 7.197 0 0 1 .474-2.61l9.2-24.388 7.042-18.682.672-1.775 6.753-17.897.184-.466-.007-.007 2.241-5.919-.007-.007.007-.007 12.742-33.771 15.528-41.126-.006-.007 17.585-46.577c-.177 4.886 3.571 13.188 10.338 23.533L25.979-35.746 11.066 3.774 2.998 25.15l-.007.007-6.526 17.288-2.214 5.876-.643 1.691-11.476 30.441-4.01 10.627c-.629 1.662-.565 3.31-.014 4.738z" opacity=".5" style="mix-blend-mode:multiply" transform="rotate(-.313 56669.794 -25778.212)"/><path fill="#532EDC" d="M148.145 361.63c-8.596-8.502-16.47-16.951-23.386-24.989l-.976 2.622-5.86 15.78-.663 1.778-6.941 18.72a452.403 452.403 0 0 0 11.94 12.26 453.305 453.305 0 0 0 12.396 11.811l18.29-7.015 2.407-.925 15.432-5.918 2.618-.998c-8.12-6.835-16.662-14.624-25.257-23.126zm51.768-52.33c-19.856-19.64-35.887-39.013-45.096-53.664l-4.48 12.08-10.816 29.136c9.051 11.78 20.877 25.137 34.506 38.618 13.636 13.488 27.121 25.167 39 34.09l29.015-11.133 12.04-4.62c-14.758-9.041-34.304-24.858-54.169-44.507z"/><path fill="#532EDC" d="M-.255 26.545c-.658-.643-1.307-1.294-1.958-1.945a452.46 452.46 0 0 1-11.873-12.325l7.043-18.681.672-1.775 5.947-15.747.99-2.617a410.393 410.393 0 0 0 13.52 15.09l-2.214 5.876-.643 1.69L-.255 26.545z" opacity=".5" style="mix-blend-mode:multiply" transform="rotate(-.313 66545.544 -22579.621)"/><path fill="#532EDC" d="M-.887 28.627c-4.844-5.593-9.249-11.017-13.138-16.122l10.974-29.076 4.547-12.056c3.323 5.346 7.544 11.335 12.529 17.734L-.887 28.627z" opacity=".5" style="mix-blend-mode:multiply" transform="rotate(-.313 52113.292 -27952.703)"/></g><path fill="none" stroke="#F18AA8" stroke-linecap="round" stroke-linejoin="round" stroke-width="7" d="M10.546-42.884c-.6 13.654-24.067 14.845-23.545 29.11C-12.465.834 12.15-.066 12.684 14.542c.534 14.608-24.082 15.507-23.548 30.115 0 0 0 0 0 0 .018.488.063.957.133 1.41" style="display:block" transform="translate(277.862 149.021)"/><path fill="none" stroke="#F18AA8" stroke-linecap="round" stroke-linejoin="round" stroke-width="7" d="M10.546-42.884c-.6 13.654-24.067 14.845-23.545 29.11C-12.465.834 12.15-.066 12.684 14.542c.534 14.608-24.082 15.507-23.548 30.115 0 0 0 0 0 0 .018.488.063.957.133 1.41" style="display:block" transform="rotate(44 -93.48 516.942)"/><path fill="none" stroke="#F18AA8" stroke-linecap="round" stroke-linejoin="round" stroke-width="7" d="M-3.639 6.119 3.639-6.119" style="display:block" transform="translate(224.825 101.699)"/><path fill="none" stroke="#532EDC" stroke-linecap="round" stroke-linejoin="round" stroke-width="7" d="M7.648-4.641-7.648 4.641" style="display:block" transform="translate(356.339 395.936)"/><path fill="none" stroke="#F18AA8" stroke-linecap="round" stroke-linejoin="round" stroke-width="7" d="M-3.639 6.119 3.639-6.119" style="display:block" transform="translate(412.481 324.473)"/><path fill="none" stroke="#532EDC" stroke-linecap="round" stroke-linejoin="round" stroke-width="7" d="M-5.034 5.034 5.034-5.034" style="display:block" transform="translate(104.916 263.923)"/><path fill="none" stroke="#532EDC" stroke-linecap="round" stroke-linejoin="round" stroke-width="7" d="M5.034 5.034-5.034-5.034" style="display:block" transform="translate(376.08 116.3)"/><path fill="none" stroke="#F18AA8" stroke-linecap="round" stroke-linejoin="round" stroke-width="7" d="M2.569 6.639-2.569-6.639" style="display:block" transform="translate(254.356 393.971)"/><path fill="none" stroke="#FDC501" stroke-linecap="round" stroke-linejoin="round" stroke-width="7" d="M-5.396-4.643 5.396 4.643" style="display:block" transform="translate(133.089 177.67)"/><path fill="none" stroke="#FDC501" stroke-linecap="round" stroke-linejoin="round" stroke-width="7" d="M1.929 6.852-1.929-6.852" style="display:block" transform="translate(390.817 243.186)"/></g></svg>